<svg xmlns="http://www.w3.org/2000/svg" xmlns:xlink="http://www.w3.org/1999/xlink" width="699.222" height="278.505" viewBox="0 0 699.222 278.505">
  <defs>
    <linearGradient id="linear-gradient" x1="0.122" y1="1.037" x2="1.033" y2="0.322" gradientUnits="objectBoundingBox">
      <stop offset="0" stop-color="#014caf"/>
      <stop offset="1" stop-color="#12acef"/>
    </linearGradient>
    <linearGradient id="linear-gradient-2" x1="-0.403" y1="0.386" x2="0.676" y2="0.253" xlink:href="#linear-gradient"/>
  </defs>
  <g id="cinntra_color" transform="translate(0 0)">
    <g id="Group_17" data-name="Group 17">
      <path id="Path_12" data-name="Path 12" d="M135.127,115.5a49.016,49.016,0,0,0-13.5-10.2,32.377,32.377,0,0,0-14.351-3.332q-13.04,0-21.331,9t-8.291,23.1q0,14.1,8.221,22.854t21.4,8.752a39.879,39.879,0,0,0,15.555-3.259,60.582,60.582,0,0,0,15.484-9.781l-1.558,27.285a52.159,52.159,0,0,1-14.422,6.8,56.5,56.5,0,0,1-16.264,2.339,53.6,53.6,0,0,1-17.4-2.835,51.361,51.361,0,0,1-15.343-8.362,52.076,52.076,0,0,1-15.2-19.027,56.813,56.813,0,0,1-5.28-24.485,58.336,58.336,0,0,1,3.9-21.4,52.04,52.04,0,0,1,28.7-29.374A53.8,53.8,0,0,1,106.213,79.5a56.079,56.079,0,0,1,16.512,2.41,55.207,55.207,0,0,1,15.024,7.3Z" fill="#02253d"/>
      <path id="Path_13" data-name="Path 13" d="M154.544,185.728V82.972h24.519V185.728Z" fill="#02253d"/>
      <path id="Path_14" data-name="Path 14" d="M203.017,185.728V79.641h2.338l63.993,59.953V82.972h22.605V189.626h-2.126l-64.2-59.953v56.055Z" fill="#02253d"/>
      <path id="Path_15" data-name="Path 15" d="M315.48,185.728V79.641h2.339l63.993,59.953V82.972h22.606V189.626h-2.126l-64.2-59.953v56.055Z" fill="#02253d"/>
      <path id="Path_16" data-name="Path 16" d="M448.852,185.728V104.445h-32.67V82.972H505.9v21.473H473.371v81.283Z" fill="#02253d"/>
      <path id="Path_17" data-name="Path 17" d="M517.662,185.728V82.972H544.1q12.684,0,19.665,1.665A34.554,34.554,0,0,1,576.127,90.2a28.67,28.67,0,0,1,8.894,10.169,27.346,27.346,0,0,1,3.153,12.792,29.685,29.685,0,0,1-4.925,17.008,32.445,32.445,0,0,1-14.209,11.409l31.323,44.149H572.371l-27.426-40.322h-3.471v40.322Zm27.851-84.047h-4.039V130.17h5.173q9.282,0,14.172-3.756t4.891-10.772q0-7.37-4.748-10.666T545.513,101.681Z" fill="#02253d"/>
      <path id="Path_18" data-name="Path 18" d="M594.056,185.728l52.37-105.944h1.559l51.237,105.944H673.568l-6.52-14.952H625.379l-6.661,14.952Zm38.41-32.669h27l-13.323-32.174Z" fill="#02253d"/>
    </g>
    <g id="Group_18" data-name="Group 18">
      <path id="Path_19" data-name="Path 19" d="M214.2,251.933c96.985,26.42,189.35-2.612,206.3-64.844,5.5-20.174,2.389-41.361-7.621-61.684,17.878,32.082,22.407,65.428,9.581,93.883-28.363,62.927-130.856,78.106-228.923,33.9-33.68-15.181-62.457-35.391-84.578-57.934C134.971,219.83,171.466,240.293,214.2,251.933Z" fill="url(#linear-gradient)"/>
      <path id="Path_20" data-name="Path 20" d="M236.249,25.313C269.928,40.494,298.7,60.7,320.826,83.247c-26.013-24.573-62.508-45.036-105.238-56.676C118.6.151,26.238,29.183,9.285,91.415c-5.5,20.174-2.388,41.361,7.622,61.684C-.971,121.017-5.5,87.671,7.325,59.216,35.689-3.711,138.181-18.89,236.249,25.313Z" fill="url(#linear-gradient-2)"/>
    </g>
    <text id="INSPIRE_THE_NEXT..." data-name="INSPIRE THE NEXT..." transform="translate(699 228)" fill="#5c717f" font-size="26" font-family="Geometric415BT-BlackA, Geometr415 Blk BT" font-weight="800" letter-spacing="0.006em"><tspan x="-259.634" y="0">INSPIRE THE NEXT...</tspan></text>
  </g>
</svg>
